<?xml version="1.0" standalone="no"?>
<!DOCTYPE svg PUBLIC "-//W3C//DTD SVG 20010904//EN"
 "http://www.w3.org/TR/2001/REC-SVG-20010904/DTD/svg10.dtd">
<svg version="1.0" xmlns="http://www.w3.org/2000/svg"
 width="512.000000pt" height="512.000000pt" viewBox="0 0 512.000000 512.000000"
 preserveAspectRatio="xMidYMid meet">
<metadata>
Created by potrace 1.11, written by Peter Selinger 2001-2013
</metadata>
<g transform="translate(0.000000,512.000000) scale(0.100000,-0.100000)"
fill="#000000" stroke="none">
<path d="M4290 3740 c-19 -5 -48 -12 -65 -15 -39 -9 -133 -45 -168 -66 -35
-20 -217 -196 -217 -209 0 -5 -12 -22 -27 -38 -16 -15 -37 -41 -48 -57 -26
-38 -128 -145 -138 -145 -4 0 -26 -12 -49 -26 -38 -24 -48 -26 -117 -21 -70 5
-178 42 -241 82 -25 16 -93 55 -120 68 -14 6 -27 14 -30 18 -3 3 -37 25 -77
48 -39 23 -74 49 -77 56 -3 8 -12 12 -20 9 -7 -3 -41 8 -74 25 -107 54 -305
128 -367 137 -80 12 -473 8 -538 -5 -29 -6 -77 -13 -107 -16 -179 -18 -416
-63 -710 -135 -106 -26 -179 -33 -212 -20 -63 24 -248 111 -298 139 -8 5 -41
20 -73 35 -31 14 -82 38 -112 52 -102 49 -104 6 -8 -261 49 -137 111 -278 201
-451 5 -11 22 -48 38 -84 16 -36 35 -69 41 -73 7 -4 13 -13 13 -18 0 -6 14
-30 30 -54 17 -24 30 -48 30 -53 0 -8 161 -279 213 -357 15 -22 47 -67 72
-101 25 -33 45 -65 45 -70 0 -5 15 -25 33 -44 19 -19 47 -55 63 -79 46 -69 48
-72 74 -100 220 -238 276 -286 422 -358 288 -144 384 -166 718 -167 142 -1
226 4 310 17 155 24 151 24 185 36 88 31 225 71 244 71 12 0 31 5 41 10 30 16
328 51 379 45 25 -4 60 -8 76 -10 17 -2 53 -6 80 -10 28 -3 89 -13 137 -22
115 -20 188 -12 231 27 l32 28 -2 94 c-2 51 -4 106 -5 122 -3 28 1 31 60 52
34 12 70 28 80 35 9 8 33 22 53 32 50 26 159 117 159 133 0 8 4 14 8 14 11 0
61 70 95 130 13 25 35 86 48 135 21 83 23 108 21 310 -1 121 -3 231 -5 245 -2
14 -7 48 -11 75 -4 28 -9 64 -11 80 -12 93 -37 223 -60 315 -30 121 -38 151
-60 240 -36 148 -38 152 -101 156 -27 1 -65 -1 -84 -6z m123 -539 c9 -41 -1
-329 -12 -349 -5 -9 -11 -33 -14 -52 -7 -54 -27 -92 -71 -133 -40 -39 -188
-117 -220 -117 -9 0 -38 -6 -64 -14 -26 -8 -75 -17 -110 -19 l-62 -5 5 82 c5
85 51 242 94 321 41 73 62 107 76 122 8 8 20 22 27 31 17 22 97 77 126 86 12
4 22 11 22 16 0 5 19 15 43 22 23 7 53 18 67 25 14 7 39 13 56 13 27 0 32 -4
37 -29z m-1583 -416 c30 -4 91 -23 135 -42 87 -38 135 -81 182 -165 14 -27 29
-48 33 -48 4 0 10 -21 14 -47 3 -25 12 -54 20 -62 7 -9 16 -33 18 -54 3 -31 0
-41 -16 -49 -33 -18 -129 -37 -247 -49 -63 -6 -118 -13 -122 -16 -5 -3 -32 -9
-60 -13 -64 -10 -137 -28 -151 -38 -56 -36 -364 -38 -483 -4 -104 31 -203 85
-203 110 0 8 -6 12 -15 9 -15 -6 -104 77 -207 194 -31 35 -73 82 -92 104 -20
22 -36 43 -36 47 0 4 -6 13 -12 20 -7 8 -21 28 -30 46 l-17 32 37 -16 c88 -37
319 -59 442 -42 98 13 194 30 225 39 41 12 233 38 330 46 44 3 81 7 82 8 5 4
120 -3 173 -10z"/>
</g>
</svg>
